<svg width="105" height="29" viewBox="0 0 105 29" fill="none" xmlns="http://www.w3.org/2000/svg">
<path d="M0 0H105L95 14.5L105 29H0V0Z" fill="#F5F5F5"/>
<path fill-rule="evenodd" clip-rule="evenodd" d="M95 14.5L105 0H0V29H105L95 14.5ZM103.096 28L93.7852 14.5L103.096 1H1V28H103.096Z" fill="#F5F5F5"/>
<path d="M16.4499 8.5H17.9499L14.8449 13.495L18.1749 19H16.6749L14.1999 14.605L11.6499 19H10.1499L13.5699 13.495L10.5249 8.5H12.0249L14.2149 12.385L16.4499 8.5Z" fill="#755FBB"/>
<path d="M20.7202 12.1V16.57L25.2952 11.575V19H24.0952V14.53L19.5202 19.525V12.1H20.7202Z" fill="#755FBB"/>
<path d="M26.569 12.1H30.619V13.225H29.194V19H27.994V13.225H26.569V12.1Z" fill="#755FBB"/>
<path d="M41.9452 12.1V19H40.7452V13.225H37.5202V19H36.3202V12.1H41.9452Z" fill="#755FBB"/>
<path d="M45.3261 22.3H44.1261V12.1H45.3261V13.285C45.5761 12.855 45.9011 12.525 46.3011 12.295C46.7111 12.065 47.1711 11.95 47.6811 11.95C48.3111 11.95 48.8811 12.095 49.3911 12.385C49.9111 12.675 50.3261 13.09 50.6361 13.63C50.9461 14.16 51.1011 14.8 51.1011 15.55C51.1011 16.29 50.9461 16.93 50.6361 17.47C50.3261 18.01 49.9111 18.425 49.3911 18.715C48.8811 19.005 48.3111 19.15 47.6811 19.15C47.1711 19.15 46.7111 19.035 46.3011 18.805C45.9011 18.575 45.5761 18.245 45.3261 17.815V22.3ZM49.8861 15.55C49.8861 15.02 49.7761 14.57 49.5561 14.2C49.3461 13.83 49.0611 13.55 48.7011 13.36C48.3511 13.17 47.9611 13.075 47.5311 13.075C47.1811 13.075 46.8361 13.17 46.4961 13.36C46.1561 13.55 45.8761 13.83 45.6561 14.2C45.4361 14.57 45.3261 15.02 45.3261 15.55C45.3261 16.08 45.4361 16.53 45.6561 16.9C45.8761 17.27 46.1561 17.55 46.4961 17.74C46.8361 17.93 47.1811 18.025 47.5311 18.025C47.9611 18.025 48.3511 17.93 48.7011 17.74C49.0611 17.55 49.3461 17.27 49.5561 16.9C49.7761 16.53 49.8861 16.08 49.8861 15.55Z" fill="#755FBB"/>
<path d="M52.1558 15.55C52.1558 14.85 52.3108 14.23 52.6208 13.69C52.9408 13.15 53.3708 12.725 53.9108 12.415C54.4508 12.105 55.0558 11.95 55.7258 11.95C56.4058 11.95 57.0108 12.105 57.5408 12.415C58.0808 12.725 58.5058 13.15 58.8158 13.69C59.1358 14.23 59.2958 14.85 59.2958 15.55C59.2958 16.24 59.1358 16.86 58.8158 17.41C58.5058 17.95 58.0808 18.375 57.5408 18.685C57.0108 18.995 56.4058 19.15 55.7258 19.15C55.0558 19.15 54.4508 18.995 53.9108 18.685C53.3708 18.375 52.9408 17.95 52.6208 17.41C52.3108 16.86 52.1558 16.24 52.1558 15.55ZM53.3708 15.55C53.3708 16.03 53.4708 16.455 53.6708 16.825C53.8808 17.195 54.1608 17.49 54.5108 17.71C54.8708 17.92 55.2758 18.025 55.7258 18.025C56.1758 18.025 56.5758 17.92 56.9258 17.71C57.2858 17.49 57.5658 17.195 57.7658 16.825C57.9758 16.455 58.0808 16.03 58.0808 15.55C58.0808 15.07 57.9758 14.645 57.7658 14.275C57.5658 13.895 57.2858 13.6 56.9258 13.39C56.5758 13.18 56.1758 13.075 55.7258 13.075C55.2758 13.075 54.8708 13.18 54.5108 13.39C54.1608 13.6 53.8808 13.895 53.6708 14.275C53.4708 14.645 53.3708 15.07 53.3708 15.55Z" fill="#755FBB"/>
<path d="M67.0222 19H60.9472V20.35H59.6722V17.875H60.9022L63.9472 11.575L66.9922 17.875H68.2222V20.35H67.0222V19ZM63.9472 14.17L62.2372 17.875H65.6572L63.9472 14.17Z" fill="#755FBB"/>
<path d="M70.5663 13.72L69.9813 12.805C70.2413 12.615 70.5913 12.425 71.0313 12.235C71.4713 12.045 72.0013 11.95 72.6213 11.95C73.4113 11.95 74.0513 12.135 74.5413 12.505C75.0313 12.865 75.2763 13.38 75.2763 14.05V19H74.0763V18.01C73.8663 18.38 73.5513 18.665 73.1313 18.865C72.7113 19.055 72.2413 19.15 71.7213 19.15C71.2913 19.15 70.8963 19.07 70.5363 18.91C70.1763 18.75 69.8863 18.515 69.6663 18.205C69.4563 17.885 69.3513 17.49 69.3513 17.02C69.3513 16.29 69.6113 15.725 70.1313 15.325C70.6613 14.915 71.3813 14.71 72.2913 14.71C72.6913 14.71 73.0413 14.76 73.3413 14.86C73.6413 14.96 73.8863 15.075 74.0763 15.205V14.05C74.0763 13.7 73.9263 13.44 73.6263 13.27C73.3363 13.09 73.0013 13 72.6213 13C72.1313 13 71.7063 13.09 71.3463 13.27C70.9963 13.45 70.7363 13.6 70.5663 13.72ZM70.5663 16.975C70.5663 17.345 70.7063 17.625 70.9863 17.815C71.2763 17.995 71.6213 18.085 72.0213 18.085C72.6213 18.085 73.1113 17.95 73.4913 17.68C73.8813 17.4 74.0763 16.94 74.0763 16.3V16.03C73.5663 15.76 72.9913 15.625 72.3513 15.625C71.7413 15.625 71.2913 15.745 71.0013 15.985C70.7113 16.225 70.5663 16.555 70.5663 16.975Z" fill="#755FBB"/>
<path d="M77.9815 12.1L80.6815 14.665V12.1H81.8065V14.665L84.5065 12.1H86.0065L82.8565 15.1L86.3065 19H84.8065L81.8065 15.325V19H80.6815V15.325L77.6815 19H76.1815L79.6315 15.1L76.4815 12.1H77.9815Z" fill="#755FBB"/>
</svg>
